<?xml version="1.0" standalone="no"?>
<!DOCTYPE svg PUBLIC "-//W3C//DTD SVG 1.1//EN" "http://www.w3.org/Graphics/SVG/1.1/DTD/svg11.dtd">
<svg version="1.1" width="1200" height="2134" onload="init(evt)" viewBox="0 0 1200 2134" xmlns="http://www.w3.org/2000/svg" xmlns:xlink="http://www.w3.org/1999/xlink">
<!-- Flame graph stack visualization. See https://github.com/brendangregg/FlameGraph for latest version, and http://www.brendangregg.com/flamegraphs.html for examples. -->
<!-- NOTES:  -->
<defs>
	<linearGradient id="background" y1="0" y2="1" x1="0" x2="0" >
		<stop stop-color="#eeeeee" offset="5%" />
		<stop stop-color="#eeeeb0" offset="95%" />
	</linearGradient>
</defs>
<style type="text/css">
	text { font-family:Verdana; font-size:12px; fill:rgb(0,0,0); }
	#search, #ignorecase { opacity:0.1; cursor:pointer; }
	#search:hover, #search.show, #ignorecase:hover, #ignorecase.show { opacity:1; }
	#subtitle { text-anchor:middle; font-color:rgb(160,160,160); }
	#title { text-anchor:middle; font-size:17px}
	#unzoom { cursor:pointer; }
	#frames > *:hover { stroke:black; stroke-width:0.5; cursor:pointer; }
	.hide { display:none; }
	.parent { opacity:0.5; }
</style>
<script type="text/ecmascript">
<![CDATA[
	"use strict";
	var details, searchbtn, unzoombtn, matchedtxt, svg, searching, currentSearchTerm, ignorecase, ignorecaseBtn;
	function init(evt) {
		details = document.getElementById("details").firstChild;
		searchbtn = document.getElementById("search");
		ignorecaseBtn = document.getElementById("ignorecase");
		unzoombtn = document.getElementById("unzoom");
		matchedtxt = document.getElementById("matched");
		svg = document.getElementsByTagName("svg")[0];
		searching = 0;
		currentSearchTerm = null;

		// use GET parameters to restore a flamegraphs state.
		var params = get_params();
		if (params.x && params.y)
			zoom(find_group(document.querySelector('[x="' + params.x + '"][y="' + params.y + '"]')));
                if (params.s) search(params.s);
	}

	// event listeners
	window.addEventListener("click", function(e) {
		var target = find_group(e.target);
		if (target) {
			if (target.nodeName == "a") {
				if (e.ctrlKey === false) return;
				e.preventDefault();
			}
			if (target.classList.contains("parent")) unzoom();
			zoom(target);
			if (!document.querySelector('.parent')) {
				clearzoom();
				return;
			}

			// set parameters for zoom state
			var el = target.querySelector("rect");
			if (el && el.attributes && el.attributes.y && el.attributes._orig_x) {
				var params = get_params()
				params.x = el.attributes._orig_x.value;
				params.y = el.attributes.y.value;
				history.replaceState(null, null, parse_params(params));
			}
		}
		else if (e.target.id == "unzoom") clearzoom();
		else if (e.target.id == "search") search_prompt();
		else if (e.target.id == "ignorecase") toggle_ignorecase();
	}, false)

	// mouse-over for info
	// show
	window.addEventListener("mouseover", function(e) {
		var target = find_group(e.target);
		if (target) details.nodeValue = "Function: " + g_to_text(target);
	}, false)

	// clear
	window.addEventListener("mouseout", function(e) {
		var target = find_group(e.target);
		if (target) details.nodeValue = ' ';
	}, false)

	// ctrl-F for search
	// ctrl-I to toggle case-sensitive search
	window.addEventListener("keydown",function (e) {
		if (e.keyCode === 114 || (e.ctrlKey && e.keyCode === 70)) {
			e.preventDefault();
			search_prompt();
		}
		else if (e.ctrlKey && e.keyCode === 73) {
			e.preventDefault();
			toggle_ignorecase();
		}
	}, false)

	// functions
	function get_params() {
		var params = {};
		var paramsarr = window.location.search.substr(1).split('&');
		for (var i = 0; i < paramsarr.length; ++i) {
			var tmp = paramsarr[i].split("=");
			if (!tmp[0] || !tmp[1]) continue;
			params[tmp[0]]  = decodeURIComponent(tmp[1]);
		}
		return params;
	}
	function parse_params(params) {
		var uri = "?";
		for (var key in params) {
			uri += key + '=' + encodeURIComponent(params[key]) + '&';
		}
		if (uri.slice(-1) == "&")
			uri = uri.substring(0, uri.length - 1);
		if (uri == '?')
			uri = window.location.href.split('?')[0];
		return uri;
	}
	function find_child(node, selector) {
		var children = node.querySelectorAll(selector);
		if (children.length) return children[0];
	}
	function find_group(node) {
		var parent = node.parentElement;
		if (!parent) return;
		if (parent.id == "frames") return node;
		return find_group(parent);
	}
	function orig_save(e, attr, val) {
		if (e.attributes["_orig_" + attr] != undefined) return;
		if (e.attributes[attr] == undefined) return;
		if (val == undefined) val = e.attributes[attr].value;
		e.setAttribute("_orig_" + attr, val);
	}
	function orig_load(e, attr) {
		if (e.attributes["_orig_"+attr] == undefined) return;
		e.attributes[attr].value = e.attributes["_orig_" + attr].value;
		e.removeAttribute("_orig_"+attr);
	}
	function g_to_text(e) {
		var text = find_child(e, "title").firstChild.nodeValue;
		return (text)
	}
	function g_to_func(e) {
		var func = g_to_text(e);
		// if there's any manipulation we want to do to the function
		// name before it's searched, do it here before returning.
		return (func);
	}
	function update_text(e) {
		var r = find_child(e, "rect");
		var t = find_child(e, "text");
		var w = parseFloat(r.attributes.width.value) -3;
		var txt = find_child(e, "title").textContent.replace(/\([^(]*\)$/,"");
		t.attributes.x.value = parseFloat(r.attributes.x.value) + 3;

		// Smaller than this size won't fit anything
		if (w < 2 * 12 * 0.59) {
			t.textContent = "";
			return;
		}

		t.textContent = txt;
		// Fit in full text width
		if (/^ *$/.test(txt) || t.getSubStringLength(0, txt.length) < w)
			return;

		for (var x = txt.length - 2; x > 0; x--) {
			if (t.getSubStringLength(0, x + 2) <= w) {
				t.textContent = txt.substring(0, x) + "..";
				return;
			}
		}
		t.textContent = "";
	}

	// zoom
	function zoom_reset(e) {
		if (e.attributes != undefined) {
			orig_load(e, "x");
			orig_load(e, "width");
		}
		if (e.childNodes == undefined) return;
		for (var i = 0, c = e.childNodes; i < c.length; i++) {
			zoom_reset(c[i]);
		}
	}
	function zoom_child(e, x, ratio) {
		if (e.attributes != undefined) {
			if (e.attributes.x != undefined) {
				orig_save(e, "x");
				e.attributes.x.value = (parseFloat(e.attributes.x.value) - x - 10) * ratio + 10;
				if (e.tagName == "text")
					e.attributes.x.value = find_child(e.parentNode, "rect[x]").attributes.x.value + 3;
			}
			if (e.attributes.width != undefined) {
				orig_save(e, "width");
				e.attributes.width.value = parseFloat(e.attributes.width.value) * ratio;
			}
		}

		if (e.childNodes == undefined) return;
		for (var i = 0, c = e.childNodes; i < c.length; i++) {
			zoom_child(c[i], x - 10, ratio);
		}
	}
	function zoom_parent(e) {
		if (e.attributes) {
			if (e.attributes.x != undefined) {
				orig_save(e, "x");
				e.attributes.x.value = 10;
			}
			if (e.attributes.width != undefined) {
				orig_save(e, "width");
				e.attributes.width.value = parseInt(svg.width.baseVal.value) - (10 * 2);
			}
		}
		if (e.childNodes == undefined) return;
		for (var i = 0, c = e.childNodes; i < c.length; i++) {
			zoom_parent(c[i]);
		}
	}
	function zoom(node) {
		var attr = find_child(node, "rect").attributes;
		var width = parseFloat(attr.width.value);
		var xmin = parseFloat(attr.x.value);
		var xmax = parseFloat(xmin + width);
		var ymin = parseFloat(attr.y.value);
		var ratio = (svg.width.baseVal.value - 2 * 10) / width;

		// XXX: Workaround for JavaScript float issues (fix me)
		var fudge = 0.0001;

		unzoombtn.classList.remove("hide");

		var el = document.getElementById("frames").children;
		for (var i = 0; i < el.length; i++) {
			var e = el[i];
			var a = find_child(e, "rect").attributes;
			var ex = parseFloat(a.x.value);
			var ew = parseFloat(a.width.value);
			var upstack;
			// Is it an ancestor
			if (0 == 0) {
				upstack = parseFloat(a.y.value) > ymin;
			} else {
				upstack = parseFloat(a.y.value) < ymin;
			}
			if (upstack) {
				// Direct ancestor
				if (ex <= xmin && (ex+ew+fudge) >= xmax) {
					e.classList.add("parent");
					zoom_parent(e);
					update_text(e);
				}
				// not in current path
				else
					e.classList.add("hide");
			}
			// Children maybe
			else {
				// no common path
				if (ex < xmin || ex + fudge >= xmax) {
					e.classList.add("hide");
				}
				else {
					zoom_child(e, xmin, ratio);
					update_text(e);
				}
			}
		}
		search();
	}
	function unzoom() {
		unzoombtn.classList.add("hide");
		var el = document.getElementById("frames").children;
		for(var i = 0; i < el.length; i++) {
			el[i].classList.remove("parent");
			el[i].classList.remove("hide");
			zoom_reset(el[i]);
			update_text(el[i]);
		}
		search();
	}
	function clearzoom() {
		unzoom();

		// remove zoom state
		var params = get_params();
		if (params.x) delete params.x;
		if (params.y) delete params.y;
		history.replaceState(null, null, parse_params(params));
	}

	// search
	function toggle_ignorecase() {
		ignorecase = !ignorecase;
		if (ignorecase) {
			ignorecaseBtn.classList.add("show");
		} else {
			ignorecaseBtn.classList.remove("show");
		}
		reset_search();
		search();
	}
	function reset_search() {
		var el = document.querySelectorAll("#frames rect");
		for (var i = 0; i < el.length; i++) {
			orig_load(el[i], "fill")
		}
		var params = get_params();
		delete params.s;
		history.replaceState(null, null, parse_params(params));
	}
	function search_prompt() {
		if (!searching) {
			var term = prompt("Enter a search term (regexp " +
			    "allowed, eg: ^ext4_)"
			    + (ignorecase ? ", ignoring case" : "")
			    + "\nPress Ctrl-i to toggle case sensitivity", "");
			if (term != null) search(term);
		} else {
			reset_search();
			searching = 0;
			currentSearchTerm = null;
			searchbtn.classList.remove("show");
			searchbtn.firstChild.nodeValue = "Search"
			matchedtxt.classList.add("hide");
			matchedtxt.firstChild.nodeValue = ""
		}
	}
	function search(term) {
		if (term) currentSearchTerm = term;

		var re = new RegExp(currentSearchTerm, ignorecase ? 'i' : '');
		var el = document.getElementById("frames").children;
		var matches = new Object();
		var maxwidth = 0;
		for (var i = 0; i < el.length; i++) {
			var e = el[i];
			var func = g_to_func(e);
			var rect = find_child(e, "rect");
			if (func == null || rect == null)
				continue;

			// Save max width. Only works as we have a root frame
			var w = parseFloat(rect.attributes.width.value);
			if (w > maxwidth)
				maxwidth = w;

			if (func.match(re)) {
				// highlight
				var x = parseFloat(rect.attributes.x.value);
				orig_save(rect, "fill");
				rect.attributes.fill.value = "rgb(230,0,230)";

				// remember matches
				if (matches[x] == undefined) {
					matches[x] = w;
				} else {
					if (w > matches[x]) {
						// overwrite with parent
						matches[x] = w;
					}
				}
				searching = 1;
			}
		}
		if (!searching)
			return;
		var params = get_params();
		params.s = currentSearchTerm;
		history.replaceState(null, null, parse_params(params));

		searchbtn.classList.add("show");
		searchbtn.firstChild.nodeValue = "Reset Search";

		// calculate percent matched, excluding vertical overlap
		var count = 0;
		var lastx = -1;
		var lastw = 0;
		var keys = Array();
		for (k in matches) {
			if (matches.hasOwnProperty(k))
				keys.push(k);
		}
		// sort the matched frames by their x location
		// ascending, then width descending
		keys.sort(function(a, b){
			return a - b;
		});
		// Step through frames saving only the biggest bottom-up frames
		// thanks to the sort order. This relies on the tree property
		// where children are always smaller than their parents.
		var fudge = 0.0001;	// JavaScript floating point
		for (var k in keys) {
			var x = parseFloat(keys[k]);
			var w = matches[keys[k]];
			if (x >= lastx + lastw - fudge) {
				count += w;
				lastx = x;
				lastw = w;
			}
		}
		// display matched percent
		matchedtxt.classList.remove("hide");
		var pct = 100 * count / maxwidth;
		if (pct != 100) pct = pct.toFixed(1)
		matchedtxt.firstChild.nodeValue = "Matched: " + pct + "%";
	}
]]>
</script>
<rect x="0.0" y="0" width="1200.0" height="2134.0" fill="url(#background)"  />
<text id="title" x="600.00" y="24" >Flame Graph</text>
<text id="details" x="10.00" y="2117" > </text>
<text id="unzoom" x="10.00" y="24" class="hide">Reset Zoom</text>
<text id="search" x="1090.00" y="24" >Search</text>
<text id="ignorecase" x="1174.00" y="24" >ic</text>
<text id="matched" x="1090.00" y="2117" > </text>
<g id="frames">
<g >
<title>[unknown] (1,113 samples, 0.03%)</title><rect x="1163.3" y="837" width="0.3" height="15.0" fill="rgb(250,65,9)" rx="2" ry="2" />
<text  x="1166.28" y="847.5" ></text>
</g>
<g >
<title>[unknown] (1,113 samples, 0.03%)</title><rect x="1163.3" y="1365" width="0.3" height="15.0" fill="rgb(247,78,12)" rx="2" ry="2" />
<text  x="1166.28" y="1375.5" ></text>
</g>
<g >
<title>[unknown] (1,113 samples, 0.03%)</title><rect x="1163.3" y="1045" width="0.3" height="15.0" fill="rgb(224,213,37)" rx="2" ry="2" />
<text  x="1166.28" y="1055.5" ></text>
</g>
<g >
<title>std::uniform_int_distribution&lt;unsigned long&gt;::operator (22,370 samples, 0.51%)</title><rect x="1184.0" y="2053" width="6.0" height="15.0" fill="rgb(221,113,46)" rx="2" ry="2" />
<text  x="1187.04" y="2063.5" ></text>
</g>
<g >
<title>__tls_get_addr (21,956 samples, 0.50%)</title><rect x="1014.1" y="2021" width="5.9" height="15.0" fill="rgb(216,203,43)" rx="2" ry="2" />
<text  x="1017.12" y="2031.5" ></text>
</g>
<g >
<title>__memcmp_evex_movbe (3,696,618 samples, 83.48%)</title><rect x="16.8" y="2021" width="985.0" height="15.0" fill="rgb(241,90,22)" rx="2" ry="2" />
<text  x="19.76" y="2031.5" >__memcmp_evex_movbe</text>
</g>
<g >
<title>[unknown] (4,370,360 samples, 98.70%)</title><rect x="15.2" y="2053" width="1164.7" height="15.0" fill="rgb(229,121,11)" rx="2" ry="2" />
<text  x="18.25" y="2063.5" >[unknown]</text>
</g>
<g >
<title>unmap_vmas (407 samples, 0.01%)</title><rect x="1179.9" y="1893" width="0.1" height="15.0" fill="rgb(242,91,34)" rx="2" ry="2" />
<text  x="1182.87" y="1903.5" ></text>
</g>
<g >
<title>[unknown] (1,113 samples, 0.03%)</title><rect x="1163.3" y="1701" width="0.3" height="15.0" fill="rgb(237,8,46)" rx="2" ry="2" />
<text  x="1166.28" y="1711.5" ></text>
</g>
<g >
<title>[unknown] (1,113 samples, 0.03%)</title><rect x="1163.3" y="1269" width="0.3" height="15.0" fill="rgb(247,139,49)" rx="2" ry="2" />
<text  x="1166.28" y="1279.5" ></text>
</g>
<g >
<title>[unknown] (1,113 samples, 0.03%)</title><rect x="1163.3" y="1989" width="0.3" height="15.0" fill="rgb(221,124,25)" rx="2" ry="2" />
<text  x="1166.28" y="1999.5" ></text>
</g>
<g >
<title>[unknown] (1,113 samples, 0.03%)</title><rect x="1163.3" y="2021" width="0.3" height="15.0" fill="rgb(231,121,54)" rx="2" ry="2" />
<text  x="1166.28" y="2031.5" ></text>
</g>
<g >
<title>[unknown] (1,113 samples, 0.03%)</title><rect x="1163.3" y="1909" width="0.3" height="15.0" fill="rgb(247,57,30)" rx="2" ry="2" />
<text  x="1166.28" y="1919.5" ></text>
</g>
<g >
<title>[unknown] (1,113 samples, 0.03%)</title><rect x="1163.3" y="245" width="0.3" height="15.0" fill="rgb(246,7,5)" rx="2" ry="2" />
<text  x="1166.28" y="255.5" ></text>
</g>
<g >
<title>[unknown] (1,113 samples, 0.03%)</title><rect x="1163.3" y="357" width="0.3" height="15.0" fill="rgb(214,101,48)" rx="2" ry="2" />
<text  x="1166.28" y="367.5" ></text>
</g>
<g >
<title>[unknown] (1,112 samples, 0.03%)</title><rect x="1163.3" y="85" width="0.3" height="15.0" fill="rgb(209,185,7)" rx="2" ry="2" />
<text  x="1166.28" y="95.5" ></text>
</g>
<g >
<title>[unknown] (3,127 samples, 0.07%)</title><rect x="1163.8" y="2021" width="0.8" height="15.0" fill="rgb(229,6,27)" rx="2" ry="2" />
<text  x="1166.82" y="2031.5" ></text>
</g>
<g >
<title>[unknown] (1,113 samples, 0.03%)</title><rect x="1163.3" y="709" width="0.3" height="15.0" fill="rgb(205,226,16)" rx="2" ry="2" />
<text  x="1166.28" y="719.5" ></text>
</g>
<g >
<title>[unknown] (1,113 samples, 0.03%)</title><rect x="1163.3" y="693" width="0.3" height="15.0" fill="rgb(245,176,16)" rx="2" ry="2" />
<text  x="1166.28" y="703.5" ></text>
</g>
<g >
<title>[unknown] (1,113 samples, 0.03%)</title><rect x="1163.3" y="629" width="0.3" height="15.0" fill="rgb(254,63,53)" rx="2" ry="2" />
<text  x="1166.28" y="639.5" ></text>
</g>
<g >
<title>[unknown] (1,112 samples, 0.03%)</title><rect x="1163.3" y="149" width="0.3" height="15.0" fill="rgb(222,98,4)" rx="2" ry="2" />
<text  x="1166.28" y="159.5" ></text>
</g>
<g >
<title>[unknown] (1,113 samples, 0.03%)</title><rect x="1163.3" y="981" width="0.3" height="15.0" fill="rgb(237,199,11)" rx="2" ry="2" />
<text  x="1166.28" y="991.5" ></text>
</g>
<g >
<title>[unknown] (1,113 samples, 0.03%)</title><rect x="1163.3" y="1301" width="0.3" height="15.0" fill="rgb(238,84,36)" rx="2" ry="2" />
<text  x="1166.28" y="1311.5" ></text>
</g>
<g >
<title>[unknown] (1,113 samples, 0.03%)</title><rect x="1163.3" y="309" width="0.3" height="15.0" fill="rgb(217,55,45)" rx="2" ry="2" />
<text  x="1166.28" y="319.5" ></text>
</g>
<g >
<title>[unknown] (1,113 samples, 0.03%)</title><rect x="1163.3" y="1973" width="0.3" height="15.0" fill="rgb(243,197,43)" rx="2" ry="2" />
<text  x="1166.28" y="1983.5" ></text>
</g>
<g >
<title>[unknown] (1,113 samples, 0.03%)</title><rect x="1163.3" y="741" width="0.3" height="15.0" fill="rgb(205,179,4)" rx="2" ry="2" />
<text  x="1166.28" y="751.5" ></text>
</g>
<g >
<title>[unknown] (1,113 samples, 0.03%)</title><rect x="1163.3" y="885" width="0.3" height="15.0" fill="rgb(249,100,18)" rx="2" ry="2" />
<text  x="1166.28" y="895.5" ></text>
</g>
<g >
<title>[unknown] (1,113 samples, 0.03%)</title><rect x="1163.3" y="997" width="0.3" height="15.0" fill="rgb(225,207,38)" rx="2" ry="2" />
<text  x="1166.28" y="1007.5" ></text>
</g>
<g >
<title>[unknown] (1,113 samples, 0.03%)</title><rect x="1163.3" y="1317" width="0.3" height="15.0" fill="rgb(221,90,16)" rx="2" ry="2" />
<text  x="1166.28" y="1327.5" ></text>
</g>
<g >
<title>ART_IDX::art_tree::lowerBound (65,209 samples, 1.47%)</title><rect x="1137.2" y="2005" width="17.3" height="15.0" fill="rgb(219,75,7)" rx="2" ry="2" />
<text  x="1140.16" y="2015.5" ></text>
</g>
<g >
<title>[unknown] (1,113 samples, 0.03%)</title><rect x="1163.3" y="389" width="0.3" height="15.0" fill="rgb(205,122,26)" rx="2" ry="2" />
<text  x="1166.28" y="399.5" ></text>
</g>
<g >
<title>[unknown] (1,113 samples, 0.03%)</title><rect x="1163.3" y="1589" width="0.3" height="15.0" fill="rgb(221,27,20)" rx="2" ry="2" />
<text  x="1166.28" y="1599.5" ></text>
</g>
<g >
<title>[unknown] (1,113 samples, 0.03%)</title><rect x="1163.3" y="453" width="0.3" height="15.0" fill="rgb(253,29,45)" rx="2" ry="2" />
<text  x="1166.28" y="463.5" ></text>
</g>
<g >
<title>[unknown] (1,112 samples, 0.03%)</title><rect x="1163.3" y="197" width="0.3" height="15.0" fill="rgb(236,3,40)" rx="2" ry="2" />
<text  x="1166.28" y="207.5" ></text>
</g>
<g >
<title>[unknown] (1,113 samples, 0.03%)</title><rect x="1163.3" y="821" width="0.3" height="15.0" fill="rgb(219,108,53)" rx="2" ry="2" />
<text  x="1166.28" y="831.5" ></text>
</g>
<g >
<title>[unknown] (1,113 samples, 0.03%)</title><rect x="1163.3" y="1669" width="0.3" height="15.0" fill="rgb(236,57,4)" rx="2" ry="2" />
<text  x="1166.28" y="1679.5" ></text>
</g>
<g >
<title>[unknown] (1,113 samples, 0.03%)</title><rect x="1163.3" y="1653" width="0.3" height="15.0" fill="rgb(240,224,20)" rx="2" ry="2" />
<text  x="1166.28" y="1663.5" ></text>
</g>
<g >
<title>__tls_get_addr@plt (2,909 samples, 0.07%)</title><rect x="1020.0" y="2021" width="0.7" height="15.0" fill="rgb(227,218,43)" rx="2" ry="2" />
<text  x="1022.97" y="2031.5" ></text>
</g>
<g >
<title>vkcmp (4,401 samples, 0.10%)</title><rect x="1161.3" y="2021" width="1.1" height="15.0" fill="rgb(212,12,3)" rx="2" ry="2" />
<text  x="1164.25" y="2031.5" ></text>
</g>
<g >
<title>[unknown] (1,113 samples, 0.03%)</title><rect x="1163.3" y="565" width="0.3" height="15.0" fill="rgb(205,212,26)" rx="2" ry="2" />
<text  x="1166.28" y="575.5" ></text>
</g>
<g >
<title>all (4,428,107 samples, 100%)</title><rect x="10.0" y="2085" width="1180.0" height="15.0" fill="rgb(214,25,21)" rx="2" ry="2" />
<text  x="13.00" y="2095.5" ></text>
</g>
<g >
<title>PiBench::benchmark_t::run (730 samples, 0.02%)</title><rect x="1163.8" y="1989" width="0.2" height="15.0" fill="rgb(214,105,43)" rx="2" ry="2" />
<text  x="1166.82" y="1999.5" ></text>
</g>
<g >
<title>[unknown] (1,113 samples, 0.03%)</title><rect x="1163.3" y="1141" width="0.3" height="15.0" fill="rgb(247,180,4)" rx="2" ry="2" />
<text  x="1166.28" y="1151.5" ></text>
</g>
<g >
<title>[unknown] (1,113 samples, 0.03%)</title><rect x="1163.3" y="1477" width="0.3" height="15.0" fill="rgb(239,95,6)" rx="2" ry="2" />
<text  x="1166.28" y="1487.5" ></text>
</g>
<g >
<title>[unknown] (1,113 samples, 0.03%)</title><rect x="1163.3" y="1941" width="0.3" height="15.0" fill="rgb(214,23,41)" rx="2" ry="2" />
<text  x="1166.28" y="1951.5" ></text>
</g>
<g >
<title>[unknown] (3,127 samples, 0.07%)</title><rect x="1163.8" y="2005" width="0.8" height="15.0" fill="rgb(247,130,30)" rx="2" ry="2" />
<text  x="1166.82" y="2015.5" ></text>
</g>
<g >
<title>[unknown] (1,113 samples, 0.03%)</title><rect x="1163.3" y="1845" width="0.3" height="15.0" fill="rgb(248,115,51)" rx="2" ry="2" />
<text  x="1166.28" y="1855.5" ></text>
</g>
<g >
<title>__tls_get_addr (4,230 samples, 0.10%)</title><rect x="1154.5" y="2005" width="1.2" height="15.0" fill="rgb(235,123,40)" rx="2" ry="2" />
<text  x="1157.54" y="2015.5" ></text>
</g>
<g >
<title>[unknown] (1,113 samples, 0.03%)</title><rect x="1163.3" y="485" width="0.3" height="15.0" fill="rgb(242,20,26)" rx="2" ry="2" />
<text  x="1166.28" y="495.5" ></text>
</g>
<g >
<title>[unknown] (1,113 samples, 0.03%)</title><rect x="1163.3" y="373" width="0.3" height="15.0" fill="rgb(218,59,6)" rx="2" ry="2" />
<text  x="1166.28" y="383.5" ></text>
</g>
<g >
<title>[unknown] (1,113 samples, 0.03%)</title><rect x="1163.3" y="1781" width="0.3" height="15.0" fill="rgb(246,222,33)" rx="2" ry="2" />
<text  x="1166.28" y="1791.5" ></text>
</g>
<g >
<title>[unknown] (1,113 samples, 0.03%)</title><rect x="1163.3" y="805" width="0.3" height="15.0" fill="rgb(248,67,13)" rx="2" ry="2" />
<text  x="1166.28" y="815.5" ></text>
</g>
<g >
<title>[unknown] (1,112 samples, 0.03%)</title><rect x="1163.3" y="101" width="0.3" height="15.0" fill="rgb(231,78,7)" rx="2" ry="2" />
<text  x="1166.28" y="111.5" ></text>
</g>
<g >
<title>[unknown] (1,113 samples, 0.03%)</title><rect x="1163.3" y="437" width="0.3" height="15.0" fill="rgb(246,24,35)" rx="2" ry="2" />
<text  x="1166.28" y="447.5" ></text>
</g>
<g >
<title>[unknown] (1,113 samples, 0.03%)</title><rect x="1163.3" y="1733" width="0.3" height="15.0" fill="rgb(206,23,41)" rx="2" ry="2" />
<text  x="1166.28" y="1743.5" ></text>
</g>
<g >
<title>[unknown] (1,113 samples, 0.03%)</title><rect x="1163.3" y="2005" width="0.3" height="15.0" fill="rgb(253,99,39)" rx="2" ry="2" />
<text  x="1166.28" y="2015.5" ></text>
</g>
<g >
<title>[unknown] (1,113 samples, 0.03%)</title><rect x="1163.3" y="261" width="0.3" height="15.0" fill="rgb(221,5,8)" rx="2" ry="2" />
<text  x="1166.28" y="271.5" ></text>
</g>
<g >
<title>[unknown] (1,113 samples, 0.03%)</title><rect x="1163.3" y="757" width="0.3" height="15.0" fill="rgb(239,175,4)" rx="2" ry="2" />
<text  x="1166.28" y="767.5" ></text>
</g>
<g >
<title>[unknown] (1,113 samples, 0.03%)</title><rect x="1163.3" y="501" width="0.3" height="15.0" fill="rgb(218,217,17)" rx="2" ry="2" />
<text  x="1166.28" y="511.5" ></text>
</g>
<g >
<title>[unknown] (1,113 samples, 0.03%)</title><rect x="1163.3" y="1205" width="0.3" height="15.0" fill="rgb(239,171,47)" rx="2" ry="2" />
<text  x="1166.28" y="1215.5" ></text>
</g>
<g >
<title>std::uniform_int_distribution&lt;unsigned int&gt;::operator (15,251 samples, 0.34%)</title><rect x="1180.0" y="2053" width="4.0" height="15.0" fill="rgb(240,67,34)" rx="2" ry="2" />
<text  x="1182.97" y="2063.5" ></text>
</g>
<g >
<title>std::uniform_int_distribution&lt;unsigned int&gt;::operator (745 samples, 0.02%)</title><rect x="1164.4" y="1989" width="0.2" height="15.0" fill="rgb(212,137,12)" rx="2" ry="2" />
<text  x="1167.45" y="1999.5" ></text>
</g>
<g >
<title>[unknown] (1,113 samples, 0.03%)</title><rect x="1163.3" y="1429" width="0.3" height="15.0" fill="rgb(222,59,23)" rx="2" ry="2" />
<text  x="1166.28" y="1439.5" ></text>
</g>
<g >
<title>[unknown] (1,113 samples, 0.03%)</title><rect x="1163.3" y="1109" width="0.3" height="15.0" fill="rgb(254,172,53)" rx="2" ry="2" />
<text  x="1166.28" y="1119.5" ></text>
</g>
<g >
<title>exit_to_user_mode_prepare (415 samples, 0.01%)</title><rect x="1179.9" y="2005" width="0.1" height="15.0" fill="rgb(232,222,39)" rx="2" ry="2" />
<text  x="1182.86" y="2015.5" ></text>
</g>
<g >
<title>[unknown] (1,113 samples, 0.03%)</title><rect x="1163.3" y="2037" width="0.3" height="15.0" fill="rgb(225,102,28)" rx="2" ry="2" />
<text  x="1166.28" y="2047.5" ></text>
</g>
<g >
<title>unmap_page_range (406 samples, 0.01%)</title><rect x="1179.9" y="1877" width="0.1" height="15.0" fill="rgb(206,52,13)" rx="2" ry="2" />
<text  x="1182.87" y="1887.5" ></text>
</g>
<g >
<title>[unknown] (1,113 samples, 0.03%)</title><rect x="1163.3" y="1797" width="0.3" height="15.0" fill="rgb(232,205,43)" rx="2" ry="2" />
<text  x="1166.28" y="1807.5" ></text>
</g>
<g >
<title>dptree_wrapper::~dptree_wrapper (3,127 samples, 0.07%)</title><rect x="1163.8" y="2037" width="0.8" height="15.0" fill="rgb(214,158,26)" rx="2" ry="2" />
<text  x="1166.82" y="2047.5" ></text>
</g>
<g >
<title>[unknown] (1,113 samples, 0.03%)</title><rect x="1163.3" y="1525" width="0.3" height="15.0" fill="rgb(206,177,21)" rx="2" ry="2" />
<text  x="1166.28" y="1535.5" ></text>
</g>
<g >
<title>memcmp@plt (3,821 samples, 0.09%)</title><rect x="1155.9" y="2021" width="1.1" height="15.0" fill="rgb(248,21,29)" rx="2" ry="2" />
<text  x="1158.95" y="2031.5" ></text>
</g>
<g >
<title>[unknown] (1,113 samples, 0.03%)</title><rect x="1163.3" y="517" width="0.3" height="15.0" fill="rgb(249,160,12)" rx="2" ry="2" />
<text  x="1166.28" y="527.5" ></text>
</g>
<g >
<title>[unknown] (1,113 samples, 0.03%)</title><rect x="1163.3" y="1157" width="0.3" height="15.0" fill="rgb(221,158,50)" rx="2" ry="2" />
<text  x="1166.28" y="1167.5" ></text>
</g>
<g >
<title>[unknown] (1,113 samples, 0.03%)</title><rect x="1163.3" y="1461" width="0.3" height="15.0" fill="rgb(231,108,26)" rx="2" ry="2" />
<text  x="1166.28" y="1471.5" ></text>
</g>
<g >
<title>[unknown] (1,113 samples, 0.03%)</title><rect x="1163.3" y="949" width="0.3" height="15.0" fill="rgb(225,46,2)" rx="2" ry="2" />
<text  x="1166.28" y="959.5" ></text>
</g>
<g >
<title>[unknown] (1,113 samples, 0.03%)</title><rect x="1163.3" y="1765" width="0.3" height="15.0" fill="rgb(219,64,6)" rx="2" ry="2" />
<text  x="1166.28" y="1775.5" ></text>
</g>
<g >
<title>[unknown] (1,113 samples, 0.03%)</title><rect x="1163.3" y="773" width="0.3" height="15.0" fill="rgb(239,16,5)" rx="2" ry="2" />
<text  x="1166.28" y="783.5" ></text>
</g>
<g >
<title>[unknown] (1,113 samples, 0.03%)</title><rect x="1163.3" y="1717" width="0.3" height="15.0" fill="rgb(238,137,41)" rx="2" ry="2" />
<text  x="1166.28" y="1727.5" ></text>
</g>
<g >
<title>PiBench (4,428,107 samples, 100.00%)</title><rect x="10.0" y="2069" width="1180.0" height="15.0" fill="rgb(218,136,6)" rx="2" ry="2" />
<text  x="13.00" y="2079.5" >PiBench</text>
</g>
<g >
<title>[unknown] (1,113 samples, 0.03%)</title><rect x="1163.3" y="1509" width="0.3" height="15.0" fill="rgb(218,146,4)" rx="2" ry="2" />
<text  x="1166.28" y="1519.5" ></text>
</g>
<g >
<title>MurmurHash64A (3,325 samples, 0.08%)</title><rect x="15.8" y="2021" width="0.9" height="15.0" fill="rgb(206,51,24)" rx="2" ry="2" />
<text  x="18.78" y="2031.5" ></text>
</g>
<g >
<title>vkcmp@plt (2,648 samples, 0.06%)</title><rect x="1162.4" y="2021" width="0.7" height="15.0" fill="rgb(236,156,39)" rx="2" ry="2" />
<text  x="1165.43" y="2031.5" ></text>
</g>
<g >
<title>[unknown] (1,113 samples, 0.03%)</title><rect x="1163.3" y="1221" width="0.3" height="15.0" fill="rgb(238,71,36)" rx="2" ry="2" />
<text  x="1166.28" y="1231.5" ></text>
</g>
<g >
<title>[unknown] (1,113 samples, 0.03%)</title><rect x="1163.3" y="965" width="0.3" height="15.0" fill="rgb(250,94,38)" rx="2" ry="2" />
<text  x="1166.28" y="975.5" ></text>
</g>
<g >
<title>[unknown] (1,113 samples, 0.03%)</title><rect x="1163.3" y="1749" width="0.3" height="15.0" fill="rgb(218,141,3)" rx="2" ry="2" />
<text  x="1166.28" y="1759.5" ></text>
</g>
<g >
<title>do_syscall_64 (415 samples, 0.01%)</title><rect x="1179.9" y="2037" width="0.1" height="15.0" fill="rgb(233,5,28)" rx="2" ry="2" />
<text  x="1182.86" y="2047.5" ></text>
</g>
<g >
<title>[unknown] (1,113 samples, 0.03%)</title><rect x="1163.3" y="917" width="0.3" height="15.0" fill="rgb(235,0,28)" rx="2" ry="2" />
<text  x="1166.28" y="927.5" ></text>
</g>
<g >
<title>std::uniform_int_distribution&lt;unsigned long&gt;::operator (540 samples, 0.01%)</title><rect x="1179.7" y="2037" width="0.2" height="15.0" fill="rgb(212,63,34)" rx="2" ry="2" />
<text  x="1182.72" y="2047.5" ></text>
</g>
<g >
<title>[unknown] (1,113 samples, 0.03%)</title><rect x="1163.3" y="1493" width="0.3" height="15.0" fill="rgb(210,108,34)" rx="2" ry="2" />
<text  x="1166.28" y="1503.5" ></text>
</g>
<g >
<title>[unknown] (1,113 samples, 0.03%)</title><rect x="1163.3" y="1093" width="0.3" height="15.0" fill="rgb(226,185,15)" rx="2" ry="2" />
<text  x="1166.28" y="1103.5" ></text>
</g>
<g >
<title>[unknown] (1,113 samples, 0.03%)</title><rect x="1163.3" y="1413" width="0.3" height="15.0" fill="rgb(215,167,33)" rx="2" ry="2" />
<text  x="1166.28" y="1423.5" ></text>
</g>
<g >
<title>[unknown] (1,113 samples, 0.03%)</title><rect x="1163.3" y="1861" width="0.3" height="15.0" fill="rgb(220,195,26)" rx="2" ry="2" />
<text  x="1166.28" y="1871.5" ></text>
</g>
<g >
<title>PiBench::uniform_key_generator_t::next_id (430 samples, 0.01%)</title><rect x="15.1" y="2053" width="0.1" height="15.0" fill="rgb(242,36,19)" rx="2" ry="2" />
<text  x="18.13" y="2063.5" ></text>
</g>
<g >
<title>PiBench::benchmark_t::run_op (4,307,584 samples, 97.28%)</title><rect x="15.2" y="2037" width="1147.9" height="15.0" fill="rgb(247,68,4)" rx="2" ry="2" />
<text  x="18.25" y="2047.5" >PiBench::benchmark_t::run_op</text>
</g>
<g >
<title>[unknown] (1,113 samples, 0.03%)</title><rect x="1163.3" y="581" width="0.3" height="15.0" fill="rgb(251,206,53)" rx="2" ry="2" />
<text  x="1166.28" y="591.5" ></text>
</g>
<g >
<title>[unknown] (1,113 samples, 0.03%)</title><rect x="1163.3" y="1397" width="0.3" height="15.0" fill="rgb(219,212,50)" rx="2" ry="2" />
<text  x="1166.28" y="1407.5" ></text>
</g>
<g >
<title>[unknown] (1,113 samples, 0.03%)</title><rect x="1163.3" y="1077" width="0.3" height="15.0" fill="rgb(238,165,8)" rx="2" ry="2" />
<text  x="1166.28" y="1087.5" ></text>
</g>
<g >
<title>[unknown] (1,112 samples, 0.03%)</title><rect x="1163.3" y="165" width="0.3" height="15.0" fill="rgb(211,33,47)" rx="2" ry="2" />
<text  x="1166.28" y="175.5" ></text>
</g>
<g >
<title>[unknown] (1,112 samples, 0.03%)</title><rect x="1163.3" y="53" width="0.3" height="15.0" fill="rgb(230,63,10)" rx="2" ry="2" />
<text  x="1166.28" y="63.5" ></text>
</g>
<g >
<title>[unknown] (1,113 samples, 0.03%)</title><rect x="1163.3" y="1829" width="0.3" height="15.0" fill="rgb(243,165,14)" rx="2" ry="2" />
<text  x="1166.28" y="1839.5" ></text>
</g>
<g >
<title>[unknown] (1,113 samples, 0.03%)</title><rect x="1163.3" y="325" width="0.3" height="15.0" fill="rgb(212,143,50)" rx="2" ry="2" />
<text  x="1166.28" y="335.5" ></text>
</g>
<g >
<title>[unknown] (1,113 samples, 0.03%)</title><rect x="1163.3" y="213" width="0.3" height="15.0" fill="rgb(248,80,5)" rx="2" ry="2" />
<text  x="1166.28" y="223.5" ></text>
</g>
<g >
<title>[unknown] (1,113 samples, 0.03%)</title><rect x="1163.3" y="421" width="0.3" height="15.0" fill="rgb(240,71,41)" rx="2" ry="2" />
<text  x="1166.28" y="431.5" ></text>
</g>
<g >
<title>[unknown] (1,112 samples, 0.03%)</title><rect x="1163.3" y="117" width="0.3" height="15.0" fill="rgb(250,141,13)" rx="2" ry="2" />
<text  x="1166.28" y="127.5" ></text>
</g>
<g >
<title>[unknown] (1,113 samples, 0.03%)</title><rect x="1163.3" y="933" width="0.3" height="15.0" fill="rgb(217,178,48)" rx="2" ry="2" />
<text  x="1166.28" y="943.5" ></text>
</g>
<g >
<title>[unknown] (1,113 samples, 0.03%)</title><rect x="1163.3" y="533" width="0.3" height="15.0" fill="rgb(218,221,37)" rx="2" ry="2" />
<text  x="1166.28" y="543.5" ></text>
</g>
<g >
<title>[unknown] (1,113 samples, 0.03%)</title><rect x="1163.3" y="277" width="0.3" height="15.0" fill="rgb(212,73,24)" rx="2" ry="2" />
<text  x="1166.28" y="287.5" ></text>
</g>
<g >
<title>[unknown] (1,113 samples, 0.03%)</title><rect x="1163.3" y="789" width="0.3" height="15.0" fill="rgb(228,165,25)" rx="2" ry="2" />
<text  x="1166.28" y="799.5" ></text>
</g>
<g >
<title>[unknown] (1,113 samples, 0.03%)</title><rect x="1163.3" y="549" width="0.3" height="15.0" fill="rgb(205,199,15)" rx="2" ry="2" />
<text  x="1166.28" y="559.5" ></text>
</g>
<g >
<title>[unknown] (1,113 samples, 0.03%)</title><rect x="1163.3" y="1445" width="0.3" height="15.0" fill="rgb(247,9,46)" rx="2" ry="2" />
<text  x="1166.28" y="1455.5" ></text>
</g>
<g >
<title>[unknown] (1,113 samples, 0.03%)</title><rect x="1163.3" y="1125" width="0.3" height="15.0" fill="rgb(254,20,25)" rx="2" ry="2" />
<text  x="1166.28" y="1135.5" ></text>
</g>
<g >
<title>PiBench::benchmark_t::run (18,681 samples, 0.42%)</title><rect x="10.0" y="2053" width="5.0" height="15.0" fill="rgb(212,28,50)" rx="2" ry="2" />
<text  x="13.00" y="2063.5" ></text>
</g>
<g >
<title>[unknown] (1,113 samples, 0.03%)</title><rect x="1163.3" y="1813" width="0.3" height="15.0" fill="rgb(224,132,5)" rx="2" ry="2" />
<text  x="1166.28" y="1823.5" ></text>
</g>
<g >
<title>[unknown] (1,113 samples, 0.03%)</title><rect x="1163.3" y="1541" width="0.3" height="15.0" fill="rgb(211,161,1)" rx="2" ry="2" />
<text  x="1166.28" y="1551.5" ></text>
</g>
<g >
<title>do_group_exit (415 samples, 0.01%)</title><rect x="1179.9" y="1957" width="0.1" height="15.0" fill="rgb(234,72,52)" rx="2" ry="2" />
<text  x="1182.86" y="1967.5" ></text>
</g>
<g >
<title>key_loader_t::next (56,510 samples, 1.28%)</title><rect x="1164.7" y="2037" width="15.0" height="15.0" fill="rgb(244,14,46)" rx="2" ry="2" />
<text  x="1167.65" y="2047.5" ></text>
</g>
<g >
<title>[unknown] (1,113 samples, 0.03%)</title><rect x="1163.3" y="1189" width="0.3" height="15.0" fill="rgb(216,150,41)" rx="2" ry="2" />
<text  x="1166.28" y="1199.5" ></text>
</g>
<g >
<title>syscall_exit_to_user_mode (415 samples, 0.01%)</title><rect x="1179.9" y="2021" width="0.1" height="15.0" fill="rgb(249,93,38)" rx="2" ry="2" />
<text  x="1182.86" y="2031.5" ></text>
</g>
<g >
<title>[unknown] (1,113 samples, 0.03%)</title><rect x="1163.3" y="1173" width="0.3" height="15.0" fill="rgb(212,114,14)" rx="2" ry="2" />
<text  x="1166.28" y="1183.5" ></text>
</g>
<g >
<title>mmput (414 samples, 0.01%)</title><rect x="1179.9" y="1925" width="0.1" height="15.0" fill="rgb(233,71,11)" rx="2" ry="2" />
<text  x="1182.86" y="1935.5" ></text>
</g>
<g >
<title>PiBench::benchmark_t::run (1,498 samples, 0.03%)</title><rect x="1164.1" y="1973" width="0.3" height="15.0" fill="rgb(251,105,38)" rx="2" ry="2" />
<text  x="1167.05" y="1983.5" ></text>
</g>
<g >
<title>[unknown] (1,113 samples, 0.03%)</title><rect x="1163.3" y="293" width="0.3" height="15.0" fill="rgb(247,54,20)" rx="2" ry="2" />
<text  x="1166.28" y="303.5" ></text>
</g>
<g >
<title>[unknown] (1,113 samples, 0.03%)</title><rect x="1163.3" y="1893" width="0.3" height="15.0" fill="rgb(221,122,30)" rx="2" ry="2" />
<text  x="1166.28" y="1903.5" ></text>
</g>
<g >
<title>[unknown] (1,112 samples, 0.03%)</title><rect x="1163.3" y="133" width="0.3" height="15.0" fill="rgb(231,198,3)" rx="2" ry="2" />
<text  x="1166.28" y="143.5" ></text>
</g>
<g >
<title>[unknown] (1,113 samples, 0.03%)</title><rect x="1163.3" y="1605" width="0.3" height="15.0" fill="rgb(227,178,24)" rx="2" ry="2" />
<text  x="1166.28" y="1615.5" ></text>
</g>
<g >
<title>[unknown] (1,113 samples, 0.03%)</title><rect x="1163.3" y="869" width="0.3" height="15.0" fill="rgb(254,108,38)" rx="2" ry="2" />
<text  x="1166.28" y="879.5" ></text>
</g>
<g >
<title>exit_mmap (413 samples, 0.01%)</title><rect x="1179.9" y="1909" width="0.1" height="15.0" fill="rgb(221,195,30)" rx="2" ry="2" />
<text  x="1182.86" y="1919.5" ></text>
</g>
<g >
<title>arch_do_signal_or_restart (415 samples, 0.01%)</title><rect x="1179.9" y="1989" width="0.1" height="15.0" fill="rgb(206,70,12)" rx="2" ry="2" />
<text  x="1182.86" y="1999.5" ></text>
</g>
<g >
<title>[unknown] (1,113 samples, 0.03%)</title><rect x="1163.3" y="1621" width="0.3" height="15.0" fill="rgb(219,184,6)" rx="2" ry="2" />
<text  x="1166.28" y="1631.5" ></text>
</g>
<g >
<title>[unknown] (1,113 samples, 0.03%)</title><rect x="1163.3" y="613" width="0.3" height="15.0" fill="rgb(209,79,46)" rx="2" ry="2" />
<text  x="1166.28" y="623.5" ></text>
</g>
<g >
<title>[unknown] (1,113 samples, 0.03%)</title><rect x="1163.3" y="853" width="0.3" height="15.0" fill="rgb(209,116,18)" rx="2" ry="2" />
<text  x="1166.28" y="863.5" ></text>
</g>
<g >
<title>[unknown] (1,113 samples, 0.03%)</title><rect x="1163.3" y="1557" width="0.3" height="15.0" fill="rgb(215,68,17)" rx="2" ry="2" />
<text  x="1166.28" y="1567.5" ></text>
</g>
<g >
<title>[unknown] (1,113 samples, 0.03%)</title><rect x="1163.3" y="677" width="0.3" height="15.0" fill="rgb(207,57,26)" rx="2" ry="2" />
<text  x="1166.28" y="687.5" ></text>
</g>
<g >
<title>[unknown] (1,113 samples, 0.03%)</title><rect x="1163.3" y="1253" width="0.3" height="15.0" fill="rgb(213,169,11)" rx="2" ry="2" />
<text  x="1166.28" y="1263.5" ></text>
</g>
<g >
<title>[unknown] (1,112 samples, 0.03%)</title><rect x="1163.3" y="69" width="0.3" height="15.0" fill="rgb(244,152,8)" rx="2" ry="2" />
<text  x="1166.28" y="79.5" ></text>
</g>
<g >
<title>__memmove_evex_unaligned_erms (46,094 samples, 1.04%)</title><rect x="1001.8" y="2021" width="12.3" height="15.0" fill="rgb(224,12,15)" rx="2" ry="2" />
<text  x="1004.84" y="2031.5" ></text>
</g>
<g >
<title>[unknown] (1,113 samples, 0.03%)</title><rect x="1163.3" y="229" width="0.3" height="15.0" fill="rgb(225,117,39)" rx="2" ry="2" />
<text  x="1166.28" y="239.5" ></text>
</g>
<g >
<title>[unknown] (1,113 samples, 0.03%)</title><rect x="1163.3" y="341" width="0.3" height="15.0" fill="rgb(216,216,46)" rx="2" ry="2" />
<text  x="1166.28" y="351.5" ></text>
</g>
<g >
<title>[unknown] (1,113 samples, 0.03%)</title><rect x="1163.3" y="1685" width="0.3" height="15.0" fill="rgb(231,103,2)" rx="2" ry="2" />
<text  x="1166.28" y="1695.5" ></text>
</g>
<g >
<title>mfence (15,933 samples, 0.36%)</title><rect x="1157.0" y="2021" width="4.3" height="15.0" fill="rgb(244,178,45)" rx="2" ry="2" />
<text  x="1160.01" y="2031.5" ></text>
</g>
<g >
<title>[unknown] (1,113 samples, 0.03%)</title><rect x="1163.3" y="1381" width="0.3" height="15.0" fill="rgb(219,107,39)" rx="2" ry="2" />
<text  x="1166.28" y="1391.5" ></text>
</g>
<g >
<title>[unknown] (1,113 samples, 0.03%)</title><rect x="1163.3" y="1061" width="0.3" height="15.0" fill="rgb(225,27,51)" rx="2" ry="2" />
<text  x="1166.28" y="1071.5" ></text>
</g>
<g >
<title>[unknown] (1,113 samples, 0.03%)</title><rect x="1163.3" y="1333" width="0.3" height="15.0" fill="rgb(207,145,3)" rx="2" ry="2" />
<text  x="1166.28" y="1343.5" ></text>
</g>
<g >
<title>[unknown] (1,113 samples, 0.03%)</title><rect x="1163.3" y="1013" width="0.3" height="15.0" fill="rgb(239,109,26)" rx="2" ry="2" />
<text  x="1166.28" y="1023.5" ></text>
</g>
<g >
<title>[unknown] (1,113 samples, 0.03%)</title><rect x="1163.3" y="1573" width="0.3" height="15.0" fill="rgb(233,210,15)" rx="2" ry="2" />
<text  x="1166.28" y="1583.5" ></text>
</g>
<g >
<title>[unknown] (1,113 samples, 0.03%)</title><rect x="1163.3" y="405" width="0.3" height="15.0" fill="rgb(213,196,0)" rx="2" ry="2" />
<text  x="1166.28" y="415.5" ></text>
</g>
<g >
<title>__tls_get_addr@plt (1,030 samples, 0.02%)</title><rect x="1155.7" y="2005" width="0.2" height="15.0" fill="rgb(237,206,24)" rx="2" ry="2" />
<text  x="1158.66" y="2015.5" ></text>
</g>
<g >
<title>[unknown] (1,113 samples, 0.03%)</title><rect x="1163.3" y="1925" width="0.3" height="15.0" fill="rgb(235,204,42)" rx="2" ry="2" />
<text  x="1166.28" y="1935.5" ></text>
</g>
<g >
<title>[unknown] (1,113 samples, 0.03%)</title><rect x="1163.3" y="597" width="0.3" height="15.0" fill="rgb(212,110,2)" rx="2" ry="2" />
<text  x="1166.28" y="607.5" ></text>
</g>
<g >
<title>[unknown] (1,113 samples, 0.03%)</title><rect x="1163.3" y="661" width="0.3" height="15.0" fill="rgb(221,180,28)" rx="2" ry="2" />
<text  x="1166.28" y="671.5" ></text>
</g>
<g >
<title>PiBench::key_generator_t::hash_id (762 samples, 0.02%)</title><rect x="1163.3" y="37" width="0.2" height="15.0" fill="rgb(244,68,32)" rx="2" ry="2" />
<text  x="1166.28" y="47.5" ></text>
</g>
<g >
<title>[unknown] (1,113 samples, 0.03%)</title><rect x="1163.3" y="645" width="0.3" height="15.0" fill="rgb(222,59,38)" rx="2" ry="2" />
<text  x="1166.28" y="655.5" ></text>
</g>
<g >
<title>[unknown] (1,113 samples, 0.03%)</title><rect x="1163.3" y="469" width="0.3" height="15.0" fill="rgb(216,157,36)" rx="2" ry="2" />
<text  x="1166.28" y="479.5" ></text>
</g>
<g >
<title>[unknown] (1,113 samples, 0.03%)</title><rect x="1163.3" y="1029" width="0.3" height="15.0" fill="rgb(245,78,14)" rx="2" ry="2" />
<text  x="1166.28" y="1039.5" ></text>
</g>
<g >
<title>[unknown] (1,113 samples, 0.03%)</title><rect x="1163.3" y="1349" width="0.3" height="15.0" fill="rgb(235,82,23)" rx="2" ry="2" />
<text  x="1166.28" y="1359.5" ></text>
</g>
<g >
<title>[unknown] (1,113 samples, 0.03%)</title><rect x="1163.3" y="1877" width="0.3" height="15.0" fill="rgb(243,74,20)" rx="2" ry="2" />
<text  x="1166.28" y="1887.5" ></text>
</g>
<g >
<title>__tls_init (3,413 samples, 0.08%)</title><rect x="1020.7" y="2021" width="1.0" height="15.0" fill="rgb(219,208,32)" rx="2" ry="2" />
<text  x="1023.75" y="2031.5" ></text>
</g>
<g >
<title>[unknown] (1,113 samples, 0.03%)</title><rect x="1163.3" y="1637" width="0.3" height="15.0" fill="rgb(217,52,42)" rx="2" ry="2" />
<text  x="1166.28" y="1647.5" ></text>
</g>
<g >
<title>[unknown] (1,113 samples, 0.03%)</title><rect x="1163.3" y="1285" width="0.3" height="15.0" fill="rgb(207,5,18)" rx="2" ry="2" />
<text  x="1166.28" y="1295.5" ></text>
</g>
<g >
<title>entry_SYSCALL_64_after_hwframe (415 samples, 0.01%)</title><rect x="1179.9" y="2053" width="0.1" height="15.0" fill="rgb(251,162,51)" rx="2" ry="2" />
<text  x="1182.86" y="2063.5" ></text>
</g>
<g >
<title>[unknown] (1,113 samples, 0.03%)</title><rect x="1163.3" y="901" width="0.3" height="15.0" fill="rgb(212,217,35)" rx="2" ry="2" />
<text  x="1166.28" y="911.5" ></text>
</g>
<g >
<title>get_signal (415 samples, 0.01%)</title><rect x="1179.9" y="1973" width="0.1" height="15.0" fill="rgb(207,225,12)" rx="2" ry="2" />
<text  x="1182.86" y="1983.5" ></text>
</g>
<g >
<title>[unknown] (1,113 samples, 0.03%)</title><rect x="1163.3" y="1957" width="0.3" height="15.0" fill="rgb(230,208,48)" rx="2" ry="2" />
<text  x="1166.28" y="1967.5" ></text>
</g>
<g >
<title>dptree_wrapper::find (503,943 samples, 11.38%)</title><rect x="1021.7" y="2021" width="134.2" height="15.0" fill="rgb(230,77,29)" rx="2" ry="2" />
<text  x="1024.66" y="2031.5" >dptree_wrapper::..</text>
</g>
<g >
<title>do_exit (415 samples, 0.01%)</title><rect x="1179.9" y="1941" width="0.1" height="15.0" fill="rgb(211,181,54)" rx="2" ry="2" />
<text  x="1182.86" y="1951.5" ></text>
</g>
<g >
<title>[unknown] (1,113 samples, 0.03%)</title><rect x="1163.3" y="1237" width="0.3" height="15.0" fill="rgb(240,170,12)" rx="2" ry="2" />
<text  x="1166.28" y="1247.5" ></text>
</g>
<g >
<title>[unknown] (1,113 samples, 0.03%)</title><rect x="1163.3" y="725" width="0.3" height="15.0" fill="rgb(231,110,14)" rx="2" ry="2" />
<text  x="1166.28" y="735.5" ></text>
</g>
<g >
<title>[unknown] (1,112 samples, 0.03%)</title><rect x="1163.3" y="181" width="0.3" height="15.0" fill="rgb(241,113,49)" rx="2" ry="2" />
<text  x="1166.28" y="191.5" ></text>
</g>
<g >
<title>[unknown] (1,498 samples, 0.03%)</title><rect x="1164.1" y="1989" width="0.3" height="15.0" fill="rgb(207,71,38)" rx="2" ry="2" />
<text  x="1167.05" y="1999.5" ></text>
</g>
</g>
</svg>
